<svg xmlns="http://www.w3.org/2000/svg" viewBox="0 0 512 640" x="0px" y="0px"><path d="M377.985,339.7c7.646,11.013,11.119,23.062,12.695,31.813a169.211,169.211,0,0,1,20.282,3.047c5.3-13.284,19.038-42.816,44.186-66.7a95.984,95.984,0,0,0-14.307-1.459c-20.695-.507-37.9,5.97-51.184,19.258A100.054,100.054,0,0,0,377.985,339.7Z"/><path d="M304.034,421.846A81.508,81.508,0,0,1,318.9,434.594a87.536,87.536,0,0,1,13.7,19.931c11.968-3.556,39.144-13.579,61.747-36.182,8.445-8.445,18.334-17.763,27.122-24.561a158.052,158.052,0,0,0-37.366-6.691C349.707,385.4,322.819,397.092,304.034,421.846Z"/><path d="M188.4,298.943c11.321-11.953,28.914-23.553,55.438-26.315C236.817,260.043,221.079,240,192,240a53.91,53.91,0,0,0-32.931,10.7A112.121,112.121,0,0,1,188.4,298.943Z"/><path d="M137.721,370.988c16.412.422,31.415,3.806,44.785,10.031,8.108-8.931,25.972-23.884,57.023-27.954C230.214,336.424,214.274,328,192,328,153.819,328,141.608,353.579,137.721,370.988Z"/><path d="M336.663,313.539a65.345,65.345,0,0,1,30.326,14.017,116.141,116.141,0,0,1,11.354-13.213,80.006,80.006,0,0,1,27.429-18.106c7.46-17.478,19.715-43.063,33.532-59.442-16-1.9-42.874-1.294-66.306,17.452C345.678,276.1,338.531,301.786,336.663,313.539Z"/><path d="M256,424c-40.916,0-57.877,28.11-62.805,38.67,6.276,6.423,17.919,11.372,34.044,14.423A176.184,176.184,0,0,0,256.005,480a176.2,176.2,0,0,0,28.756-2.907c16.125-3.051,27.768-8,34.044-14.423C313.877,452.11,296.916,424,256,424Z"/><path d="M322.276,224.051a69.115,69.115,0,0,1,42.969,15.962,97.383,97.383,0,0,1,27.383-14.543c1.253-17.571,4.664-42.37,13.787-61.532C379.8,170.869,333.062,187.954,322.276,224.051Z"/><path d="M268.511,112.719a84.85,84.85,0,0,1,35.857,12.314,77.582,77.582,0,0,1,26.755-26.418A154.736,154.736,0,0,1,343.3,60.3C320.372,67.052,282.123,82.5,268.511,112.719Z"/><path d="M256,101.937c7.868-14.816,21.111-27.849,39.182-38.55L256,34,216.817,63.387C234.888,74.088,248.132,87.121,256,101.937Z"/><path d="M316.408,136.13a70.793,70.793,0,0,1,50.653,24.514c.233-.1.46-.212.695-.316,3.124-1.381,6.229-2.651,9.286-3.826,1.412-15.689,4.534-36.028,11.384-53.968a101.07,101.07,0,0,0-24.168,1.008C342.442,107.234,326.373,118.2,316.408,136.13Z"/><path d="M207.625,125.038a84.858,84.858,0,0,1,35.864-12.319C229.877,82.5,191.63,67.052,168.7,60.3a154.617,154.617,0,0,1,12.174,38.3A77.468,77.468,0,0,1,207.625,125.038Z"/><path d="M222.276,414.285a93.62,93.62,0,0,1,67.448,0,105.1,105.1,0,0,1,25.48-25.11C306.626,380.817,288.22,368,256,368c-32.128,0-50.577,12.846-59.179,21.194A105.118,105.118,0,0,1,222.276,414.285Z"/><path d="M263.854,250.878c11.338-13.6,25.535-22.222,41.6-25.437.317-1.553.68-3.094,1.1-4.616C293.648,207.008,276.665,200,256,200s-37.65,7.008-50.559,20.826q.633,2.285,1.106,4.615c16.065,3.215,30.261,11.833,41.6,25.437A92.439,92.439,0,0,1,256,261.884,92.439,92.439,0,0,1,263.854,250.878Z"/><path d="M207.966,421.846c-18.785-24.755-45.682-36.453-80.065-34.755a158.052,158.052,0,0,0-37.365,6.691c8.787,6.8,18.676,16.116,27.121,24.561,22.708,22.708,49.8,32.671,61.74,36.2A87.536,87.536,0,0,1,193.1,434.594,81.508,81.508,0,0,1,207.966,421.846Z"/><path d="M216.333,138.477c12.44,3.862,23.681,12.208,33.067,24.723a99.989,99.989,0,0,1,6.6,10.038,99.989,99.989,0,0,1,6.6-10.038c9.386-12.515,20.627-20.861,33.067-24.723C286.99,133.016,274.111,128,256,128S225.01,133.016,216.333,138.477Z"/><path d="M352.257,168.129C344.548,160.328,331.706,152,312,152c-23.282,0-37.448,20.145-44.019,32.712a80.929,80.929,0,0,1,45.189,20.217C321.171,190.779,334.327,178.376,352.257,168.129Z"/><path d="M329.494,381.018c13.37-6.225,28.374-9.609,44.786-10.03C370.392,353.55,358.177,328,320,328c-22.274,0-38.214,8.424-47.529,25.065C303.522,357.135,321.386,372.088,329.494,381.018Z"/><path d="M159.743,168.129c17.93,10.247,31.087,22.65,39.088,36.8a80.922,80.922,0,0,1,45.188-20.216C237.448,172.145,223.282,152,200,152,180.294,152,167.452,160.328,159.743,168.129Z"/><path d="M320,240c-28.826,0-44.668,20.068-51.762,32.635C294.723,275.41,312.3,287,323.605,298.942A112.12,112.12,0,0,1,352.932,250.7,53.921,53.921,0,0,0,320,240Z"/><path d="M197.919,312.182c27.029,1.675,47.291,14.963,58.081,38.006,10.79-23.044,31.053-36.331,58.081-38.006C303.1,299.418,285.141,288,256,288S208.9,299.418,197.919,312.182Z"/><path d="M144.2,160.309c.249.11.49.224.738.335a70.786,70.786,0,0,1,50.629-24.512c-9.614-17.29-24.883-28.112-45.575-32.178a99.885,99.885,0,0,0-26.414-1.419c6.8,17.8,9.942,37.954,11.377,53.966C138,157.671,141.09,158.935,144.2,160.309Z"/><path d="M101.038,374.558a169.436,169.436,0,0,1,20.282-3.048c1.573-8.736,5.047-20.8,12.7-31.814a100.131,100.131,0,0,0-11.674-14.039c-21.311-21.31-49.061-20.691-65.492-17.8C82,331.742,95.738,361.274,101.038,374.558Z"/><path d="M133.657,314.343a115.984,115.984,0,0,1,11.354,13.216,65.366,65.366,0,0,1,30.354-14.026c-1.822-11.744-8.892-37.309-36.363-59.286-23.4-18.723-50.239-19.345-66.258-17.456,14.6,16.568,25.11,39.719,32,58.883A79.89,79.89,0,0,1,133.657,314.343Z"/><path d="M146.755,240.013a69.111,69.111,0,0,1,42.967-15.962c-10.794-36.127-57.606-53.211-84.209-60.132,6.06,12.65,11.809,32.076,13.863,61.552A97.372,97.372,0,0,1,146.755,240.013Z"/><text x="0" y="527" fill="#000000" font-size="5px" font-weight="bold" font-family="'Helvetica Neue', Helvetica, Arial-Unicode, Arial, Sans-serif">Created by iconixar</text><text x="0" y="532" fill="#000000" font-size="5px" font-weight="bold" font-family="'Helvetica Neue', Helvetica, Arial-Unicode, Arial, Sans-serif">from the Noun Project</text></svg>